<svg version="1" xmlns="http://www.w3.org/2000/svg" width="682.667" height="682.667" viewBox="0 0 512.000000 512.000000"><path d="M0 256v256h512V0H0v256zM406.1 69.9c5.8 3 13.4 10.4 17 16.6l2.8 5-4.1 2.1-4.2 2.1-3.6-5.6c-4.2-6.5-9.2-10.6-15.5-12.8-8.7-2.9-20.9.9-33.6 10.6-11.9 9-12.2 8.6 5.9 8.7 12.2 0 17.8.5 25.2 2.1 54.6 12.1 91.2 59.1 87.6 112.3-2 28.3-11.7 50.7-30.6 70.4-37.6 39.1-98.9 45.6-144.4 15.2-8.7-5.8-21.4-18-27.1-26-4.8-6.8-11.8-20.7-14.9-29.7-8.1-23.9-7.2-54.5 2.3-77.8 6.9-16.8 21.4-35.4 35.6-45.5 12.2-8.7 28.7-16 42.5-18.7 3.6-.7 6.7-1.4 6.9-1.6.3-.2-1-1.8-2.8-3.7l-3.2-3.3 5.5-5c7-6.4 14.6-11.4 22.1-14.6 8.4-3.5 9-3.6 18.1-3.3 6.1.2 9.2.8 12.5 2.5zm-248.6 7.7c5.2 1.8 14.5 10 14.5 12.8 0 .9-1.6 2.4-3.6 3.4l-3.7 1.9-3.4-3.8c-1.9-2.1-5.4-4.5-7.9-5.5-9.3-3.6-30.2 0-45.6 7.7-3.2 1.6-6.2 2.9-6.7 2.9-.9 0-5.5-7-4.9-7.5.2-.2 3.5-1.8 7.3-3.7 19.5-9.7 40.4-12.9 54-8.2zm-5 19.5c29.8 3.7 58.3 19.7 76.2 43 24.7 32.2 28.4 79.4 9 116.2-17.6 33.2-49.6 54.5-88.8 58.9-20.5 2.3-41.2-1.7-61.4-11.7-22.1-10.9-37.7-26.4-48.1-47.5-6.9-13.9-9.9-24.5-11.4-40.5-4-42.5 15.2-81.8 50.2-102.7 22.8-13.6 48-18.9 74.3-15.7zm-5.3 282c20.5 13.3 50.4 26.3 72.8 31.6 10.3 2.5 13.3 2.8 29.5 2.7 19.7 0 27.6-1.1 51.7-7 23.1-5.6 57.7-17.8 74-26l4.8-2.4 4.4 8.9 4.5 8.9-9.2 4C326.6 423 272.2 435.8 239 433c-13.8-1.1-19.8-2.2-33.4-6-23.5-6.6-56-21.9-74.2-34.9l-5.2-3.7 5.7-7.7c3.1-4.2 5.7-7.6 5.8-7.7.1 0 4.4 2.7 9.5 6.1z"/><path d="M362 116c-26.5 3.8-45.7 25.5-53.3 60-3.1 13.8-3 45.2.1 59.1 7.8 35.5 27.5 56.7 55.5 59.9 39.6 4.5 67.8-24.2 73.8-75.1 4.5-39.3-8.8-77.9-32.7-94.2-12.9-8.8-27.2-12-43.4-9.7zm25.7 51.7c17.9 8.3 25.1 35.9 14.8 57-6 12.1-15.6 18.6-27.5 18.6-20.3 0-35.3-21.7-31.9-46.1 3.6-25.2 24.4-39 44.6-29.5zM127.9 116.1c-21.2 3.1-38.4 18.5-47.9 43-5.3 13.7-7.3 26.3-7.3 45.4 0 36.6 8.9 61.1 28.2 77.8 10.3 8.9 22.3 13.1 37.6 13 17.3-.1 29.4-5.1 41.5-17.3 8.6-8.7 13-15.6 17.6-27.8 5.7-15.2 6.9-23.3 6.9-45.7-.1-18.4-.3-20.9-2.8-30.8-10.3-40.9-38.3-62.8-73.8-57.6zm21.6 50.1c11.9 3 22.9 14.3 26.5 27.2 7.7 27.6-15.9 54-44.2 49.5-31.8-5-44.3-44.4-21.4-67.1 10.3-10.1 23.9-13.5 39.1-9.6z"/></svg>