<?xml version="1.0" encoding="UTF-8"?>
<svg width="56px" height="56px" viewBox="0 0 56 56" version="1.1" xmlns="http://www.w3.org/2000/svg" xmlns:xlink="http://www.w3.org/1999/xlink">
    <!-- Generator: Sketch 51.3 (57544) - http://www.bohemiancoding.com/sketch -->
    <title>cc-license</title>
    <desc>Created with Sketch.</desc>
    <defs></defs>
    <g id="Page-1" stroke="none" stroke-width="1" fill="none" fill-rule="evenodd">
        <g id="cc" fill="#FFFFFF">
            <path d="M27.955,0.647 C35.641,0.647 42.184,3.33 47.581,8.694 C50.164,11.278 52.126,14.23 53.468,17.55 C54.809,20.87 55.48,24.394 55.48,28.123 C55.48,31.885 54.817,35.409 53.493,38.696 C52.168,41.983 50.213,44.887 47.629,47.405 C44.947,50.054 41.905,52.083 38.504,53.489 C35.102,54.896 31.586,55.599 27.955,55.599 C24.324,55.599 20.849,54.904 17.529,53.513 C14.208,52.123 11.232,50.112 8.599,47.478 C5.966,44.846 3.963,41.877 2.589,38.574 C1.215,35.27 0.528,31.787 0.528,28.123 C0.528,24.492 1.223,21.001 2.614,17.648 C4.003,14.295 6.023,11.294 8.673,8.645 C13.906,3.313 20.333,0.647 27.955,0.647 Z M28.053,5.602 C21.773,5.602 16.49,7.794 12.206,12.177 C10.047,14.369 8.386,16.831 7.226,19.561 C6.064,22.293 5.484,25.147 5.484,28.123 C5.484,31.067 6.064,33.905 7.226,36.635 C8.386,39.367 10.047,41.804 12.206,43.946 C14.364,46.089 16.801,47.724 19.516,48.852 C22.23,49.981 25.076,50.545 28.053,50.545 C30.997,50.545 33.85,49.973 36.615,48.828 C39.378,47.683 41.872,46.031 44.097,43.873 C48.382,39.686 50.524,34.436 50.524,28.123 C50.524,25.081 49.968,22.203 48.856,19.488 C47.744,16.773 46.125,14.353 43.999,12.226 C39.583,7.81 34.268,5.602 28.053,5.602 Z M27.71,23.56 L24.03,25.474 C23.637,24.656 23.154,24.083 22.583,23.756 C22.01,23.43 21.478,23.266 20.988,23.266 C18.535,23.266 17.308,24.885 17.308,28.123 C17.308,29.595 17.619,30.772 18.24,31.655 C18.861,32.539 19.777,32.98 20.988,32.98 C22.59,32.98 23.719,32.195 24.374,30.625 L27.759,32.342 C27.039,33.684 26.041,34.739 24.766,35.507 C23.49,36.276 22.083,36.66 20.546,36.66 C18.093,36.66 16.114,35.908 14.61,34.403 C13.105,32.899 12.352,30.805 12.352,28.123 C12.352,25.506 13.113,23.43 14.634,21.892 C16.155,20.354 18.076,19.586 20.399,19.586 C23.801,19.586 26.238,20.911 27.71,23.56 Z M43.557,23.56 L39.927,25.474 C39.534,24.656 39.051,24.083 38.479,23.756 C37.906,23.43 37.358,23.266 36.835,23.266 C34.382,23.266 33.156,24.885 33.156,28.123 C33.156,29.595 33.466,30.772 34.088,31.655 C34.709,32.539 35.625,32.98 36.835,32.98 C38.438,32.98 39.566,32.195 40.221,30.625 L43.655,32.342 C42.902,33.684 41.889,34.739 40.613,35.507 C39.338,36.276 37.947,36.66 36.443,36.66 C33.957,36.66 31.97,35.908 30.482,34.403 C28.993,32.899 28.25,30.805 28.25,28.123 C28.25,25.506 29.01,23.43 30.531,21.892 C32.052,20.354 33.973,19.586 36.296,19.586 C39.697,19.586 42.118,20.911 43.557,23.56 Z" id="cc-license"></path>
        </g>
    </g>
</svg>