<?xml version="1.0" encoding="UTF-8"?>
<svg width="91px" height="70px" viewBox="0 0 91 70" version="1.1" xmlns="http://www.w3.org/2000/svg" xmlns:xlink="http://www.w3.org/1999/xlink">
    <!-- Generator: Sketch 51.3 (57544) - http://www.bohemiancoding.com/sketch -->
    <title>icon-fullscreen</title>
    <desc>Created with Sketch.</desc>
    <defs></defs>
    <g id="Page-1" stroke="none" stroke-width="1" fill="none" fill-rule="evenodd">
        <g id="icon-fullscreen" fill="#000000" fill-rule="nonzero">
            <path d="M68.765,0.158 L68.765,13.533 C68.743,13.522 68.707,13.522 68.683,13.522 C68.334,13.463 67.975,13.417 67.579,13.394 C67.24,13.359 66.881,13.324 66.532,13.313 C65.984,13.266 65.415,13.243 64.694,13.243 C64.217,13.243 63.752,13.266 63.298,13.29 L62.949,13.313 L62.949,5.974 L6.091,5.974 L6.091,42.12 L34.69,42.12 C34.667,42.504 34.655,42.899 34.655,43.283 C34.655,43.794 34.667,44.33 34.701,44.842 C34.724,45.353 34.759,45.877 34.805,46.273 C34.851,46.773 34.921,47.272 34.98,47.738 C35.015,47.959 35.049,48.168 35.084,48.39 L35.095,48.692 L35.212,49.063 C35.294,49.471 35.386,49.889 35.48,50.285 C35.562,50.623 35.654,50.971 35.747,51.332 L36.166,52.809 L36.224,52.868 C36.271,52.996 36.306,53.124 36.352,53.228 C36.596,53.96 36.864,54.635 37.154,55.276 C37.341,55.694 37.527,56.112 37.712,56.484 C37.98,57.054 38.271,57.602 38.55,58.078 C39.085,59.019 39.666,59.939 40.248,60.73 C40.26,60.752 40.271,60.763 40.295,60.788 C39.923,60.719 39.504,60.684 39.039,60.684 L30.002,60.684 C25.455,60.684 25.315,64.219 25.315,64.219 C25.315,64.219 16.395,64.219 15.65,64.219 C14.894,64.219 13.417,63.44 13.417,61.509 C13.417,59.568 14.557,58.393 15.661,58.393 C16.754,58.393 22.233,58.381 26.012,58.381 C29.792,58.381 30.769,55.672 30.769,54.334 C30.769,53.438 30.769,47.938 30.769,47.938 L0.276,47.938 L0.276,0.158 L68.765,0.158 Z" id="Shape"></path>
            <path d="M56.065,18.79 C57.797,18.185 59.624,17.743 61.507,17.522 C59.624,17.731 57.798,18.173 56.065,18.79 Z M68.765,17.638 C69.544,17.755 70.301,17.917 71.057,18.104 C70.312,17.905 69.544,17.754 68.765,17.638 Z M56.065,18.79 C57.797,18.185 59.624,17.743 61.507,17.522 C59.624,17.731 57.798,18.173 56.065,18.79 Z M56.065,18.79 C57.797,18.185 59.624,17.743 61.507,17.522 C59.624,17.731 57.798,18.173 56.065,18.79 Z" id="Shape"></path>
            <path d="M68.765,17.638 C69.544,17.755 70.301,17.917 71.057,18.104 C70.312,17.905 69.544,17.754 68.765,17.638 Z M56.065,18.79 C57.797,18.185 59.624,17.743 61.507,17.522 C59.624,17.731 57.798,18.173 56.065,18.79 Z" id="Shape"></path>
            <path d="M56.065,18.79 C57.797,18.185 59.624,17.743 61.507,17.522 C59.624,17.731 57.798,18.173 56.065,18.79 Z M68.765,17.638 C69.544,17.755 70.301,17.917 71.057,18.104 C70.312,17.905 69.544,17.754 68.765,17.638 Z" id="Shape"></path>
            <path d="M90.629,41.944 C90.606,41.503 90.571,41.06 90.525,40.63 C90.49,40.2 90.432,39.782 90.363,39.362 C90.363,39.316 90.351,39.269 90.339,39.222 C90.304,38.92 90.247,38.629 90.189,38.327 C90.13,38.013 90.073,37.71 89.991,37.395 C89.921,37.105 89.851,36.802 89.771,36.511 C89.711,36.302 89.654,36.093 89.595,35.884 C89.549,35.709 89.491,35.547 89.444,35.384 C89.328,35.035 89.212,34.698 89.085,34.349 C88.944,33.954 88.794,33.558 88.619,33.175 C88.526,32.931 88.422,32.698 88.305,32.465 C88.19,32.186 88.049,31.919 87.909,31.652 C87.793,31.396 87.665,31.152 87.525,30.907 C87.281,30.442 87.026,30 86.747,29.558 C86.584,29.302 86.421,29.046 86.258,28.802 C86.235,28.767 86.223,28.744 86.2,28.721 C85.978,28.395 85.746,28.058 85.503,27.744 C85.258,27.407 85.002,27.081 84.735,26.767 C84.466,26.441 84.199,26.127 83.92,25.825 C83.665,25.546 83.408,25.279 83.141,25.012 C83.107,24.965 83.06,24.919 83.014,24.872 C82.745,24.604 82.479,24.348 82.2,24.104 C81.874,23.802 81.549,23.522 81.212,23.244 C80.909,22.988 80.584,22.732 80.258,22.488 C79.956,22.267 79.642,22.046 79.339,21.837 C79.037,21.616 78.711,21.418 78.397,21.22 C78.154,21.069 77.909,20.918 77.666,20.779 C77.2,20.511 76.724,20.255 76.235,20.011 C75.991,19.895 75.735,19.767 75.49,19.662 C75.433,19.627 75.374,19.604 75.316,19.581 C75.048,19.453 74.769,19.337 74.49,19.232 C74.024,19.034 73.56,18.86 73.083,18.709 C72.793,18.604 72.49,18.5 72.187,18.407 C72.164,18.407 72.141,18.395 72.118,18.395 C71.769,18.29 71.408,18.197 71.06,18.104 C70.304,17.917 69.547,17.755 68.768,17.638 C68.571,17.603 68.362,17.569 68.164,17.557 C67.85,17.499 67.535,17.464 67.211,17.44 C66.908,17.406 66.594,17.382 66.279,17.37 C65.757,17.324 65.233,17.312 64.698,17.312 C64.302,17.312 63.919,17.323 63.535,17.347 C63.338,17.359 63.151,17.37 62.954,17.382 C62.581,17.405 62.209,17.44 61.849,17.475 C61.733,17.475 61.627,17.486 61.512,17.521 C59.628,17.742 57.802,18.184 56.07,18.789 C55.639,18.929 55.209,19.091 54.791,19.277 C54.43,19.428 54.068,19.591 53.709,19.754 C53.36,19.917 52.999,20.091 52.663,20.277 C52.324,20.452 51.988,20.637 51.662,20.824 C51.649,20.824 51.639,20.835 51.627,20.847 C51.291,21.044 50.964,21.242 50.639,21.451 C50.326,21.649 50.011,21.858 49.707,22.079 C49.674,22.091 49.65,22.114 49.614,22.149 C49.347,22.335 49.092,22.533 48.835,22.73 C48.778,22.765 48.708,22.823 48.638,22.881 C48.371,23.09 48.116,23.299 47.859,23.52 C47.475,23.846 47.091,24.184 46.72,24.555 C46.522,24.729 46.336,24.927 46.15,25.114 C45.882,25.393 45.615,25.672 45.359,25.963 C45.091,26.254 44.847,26.545 44.603,26.847 C43.37,28.347 42.3,29.975 41.439,31.731 C41.311,31.987 41.183,32.254 41.067,32.51 C40.939,32.789 40.811,33.068 40.706,33.359 C40.59,33.603 40.485,33.859 40.404,34.115 C40.287,34.406 40.183,34.697 40.09,34.999 C39.963,35.371 39.846,35.755 39.73,36.139 C39.626,36.51 39.521,36.895 39.428,37.279 L39.428,37.314 C39.335,37.697 39.254,38.081 39.184,38.477 C39.114,38.848 39.056,39.22 38.998,39.604 C38.916,40.093 38.858,40.592 38.835,41.093 C38.8,41.431 38.777,41.78 38.766,42.116 C38.743,42.5 38.731,42.895 38.731,43.279 C38.731,43.72 38.743,44.174 38.766,44.617 C38.789,45.057 38.824,45.501 38.87,45.93 C38.905,46.351 38.963,46.769 39.021,47.175 C39.056,47.432 39.103,47.688 39.149,47.932 C39.149,47.965 39.161,48.002 39.172,48.036 C39.254,48.477 39.347,48.919 39.451,49.362 C39.555,49.815 39.684,50.268 39.811,50.722 C39.823,50.734 39.823,50.756 39.823,50.768 C39.951,51.152 40.067,51.524 40.207,51.908 C40.405,52.49 40.625,53.06 40.881,53.619 C41.044,54.002 41.218,54.374 41.393,54.734 C41.614,55.2 41.858,55.641 42.114,56.084 C42.556,56.874 43.044,57.642 43.579,58.375 C43.777,58.653 43.986,58.933 44.196,59.2 C44.812,60.015 45.487,60.782 46.219,61.514 C46.464,61.771 46.707,62.014 46.964,62.235 C47.114,62.386 47.254,62.515 47.405,62.643 C47.615,62.84 47.836,63.027 48.068,63.213 C48.487,63.571 48.905,63.899 49.336,64.212 C49.871,64.608 50.43,64.991 51,65.34 C51.243,65.491 51.5,65.644 51.755,65.793 C51.814,65.829 51.884,65.863 51.941,65.897 C52.209,66.049 52.477,66.188 52.745,66.329 C53.048,66.491 53.349,66.631 53.651,66.782 C54.163,67.026 54.699,67.26 55.245,67.469 C55.653,67.631 56.059,67.783 56.477,67.91 C56.803,68.014 57.128,68.119 57.454,68.212 C57.756,68.306 58.059,68.387 58.361,68.469 C58.501,68.503 58.629,68.538 58.769,68.563 C59.141,68.656 59.524,68.738 59.92,68.805 C60.187,68.865 60.465,68.911 60.744,68.947 C61.176,69.016 61.605,69.074 62.049,69.109 C62.431,69.156 62.839,69.189 63.235,69.202 C63.723,69.237 64.212,69.249 64.7,69.249 C79.04,69.249 90.67,57.619 90.67,43.279 C90.664,42.841 90.652,42.387 90.629,41.944 Z M64.694,63.437 C64.31,63.437 63.915,63.426 63.531,63.402 C63.252,63.391 62.972,63.367 62.693,63.333 C62.495,63.322 62.286,63.298 62.089,63.263 C61.693,63.218 61.31,63.159 60.926,63.077 C60.881,63.077 60.833,63.065 60.787,63.054 C60.403,62.984 60.031,62.904 59.658,62.798 C59.636,62.798 59.612,62.786 59.577,62.775 C59.17,62.671 58.764,62.555 58.368,62.414 C57.972,62.287 57.576,62.147 57.192,61.985 C57.007,61.915 56.833,61.845 56.658,61.764 C56.297,61.612 55.949,61.45 55.61,61.275 C55.297,61.113 54.983,60.949 54.681,60.762 C54.471,60.647 54.261,60.52 54.063,60.391 C53.111,59.81 52.203,59.135 51.366,58.391 C48.297,55.681 46.052,52.052 45.086,47.936 C45.063,47.876 45.051,47.832 45.051,47.772 C44.981,47.447 44.912,47.133 44.853,46.807 C44.795,46.494 44.749,46.168 44.713,45.854 C44.678,45.621 44.655,45.389 44.632,45.156 C44.609,44.924 44.585,44.691 44.574,44.458 C44.551,44.063 44.539,43.68 44.539,43.284 C44.539,42.888 44.551,42.505 44.574,42.121 C44.585,41.889 44.597,41.655 44.632,41.435 C44.643,41.248 44.667,41.062 44.69,40.875 C44.69,40.782 44.702,40.678 44.725,40.585 C44.748,40.376 44.783,40.178 44.818,39.981 C44.841,39.772 44.876,39.575 44.922,39.364 C44.957,39.178 45.003,38.98 45.05,38.796 C45.132,38.375 45.248,37.969 45.376,37.563 C45.411,37.411 45.458,37.26 45.515,37.109 C45.562,36.935 45.62,36.772 45.678,36.609 C45.76,36.353 45.852,36.109 45.957,35.865 C46.062,35.597 46.178,35.33 46.293,35.074 C46.409,34.795 46.539,34.527 46.678,34.26 C46.806,33.993 46.946,33.737 47.097,33.481 C47.247,33.213 47.399,32.946 47.55,32.69 C48.166,31.69 48.876,30.759 49.655,29.887 C49.852,29.666 50.051,29.446 50.259,29.236 C50.468,29.027 50.678,28.818 50.887,28.62 C51.119,28.398 51.351,28.178 51.597,27.98 C51.806,27.806 52.015,27.631 52.224,27.468 C52.514,27.224 52.828,26.991 53.144,26.782 C53.319,26.654 53.48,26.538 53.655,26.433 C53.9,26.27 54.155,26.107 54.412,25.956 C54.539,25.874 54.667,25.805 54.796,25.735 L55.18,25.526 C55.713,25.223 56.284,24.956 56.854,24.712 C57.377,24.503 57.924,24.294 58.471,24.119 C58.645,24.06 58.82,24.002 59.005,23.956 C59.226,23.886 59.437,23.816 59.656,23.769 C59.889,23.7 60.134,23.653 60.365,23.595 C60.401,23.584 60.435,23.584 60.47,23.572 C60.563,23.56 60.644,23.537 60.737,23.525 C60.866,23.49 60.983,23.467 61.11,23.455 C61.412,23.397 61.714,23.351 62.017,23.316 C62.331,23.27 62.634,23.234 62.948,23.211 C63.238,23.188 63.517,23.165 63.808,23.153 C64.099,23.141 64.39,23.13 64.692,23.13 C66.088,23.13 67.449,23.27 68.762,23.537 C69.087,23.607 69.414,23.677 69.728,23.769 C70.065,23.851 70.414,23.956 70.751,24.06 C70.924,24.106 71.088,24.165 71.251,24.223 C71.483,24.304 71.716,24.386 71.938,24.479 C72.031,24.514 72.112,24.549 72.194,24.583 C72.344,24.641 72.508,24.711 72.647,24.77 C72.693,24.781 72.728,24.805 72.775,24.828 C72.903,24.875 73.042,24.932 73.171,25.002 C73.962,25.363 74.718,25.781 75.439,26.247 C75.73,26.433 76.021,26.619 76.3,26.828 C76.345,26.84 76.38,26.875 76.427,26.921 C76.729,27.13 77.02,27.352 77.311,27.584 C77.508,27.735 77.695,27.898 77.881,28.061 C78.09,28.247 78.3,28.433 78.509,28.631 C78.719,28.817 78.916,29.015 79.114,29.224 C79.438,29.55 79.753,29.898 80.044,30.247 C80.16,30.375 80.253,30.502 80.37,30.631 C80.382,30.654 80.404,30.666 80.415,30.689 C80.567,30.863 80.706,31.049 80.835,31.236 C81.974,32.759 82.905,34.445 83.58,36.26 C83.661,36.482 83.742,36.701 83.811,36.922 C83.915,37.213 84.008,37.516 84.09,37.818 C84.113,37.887 84.138,37.969 84.149,38.04 C84.243,38.353 84.312,38.667 84.381,38.994 C84.532,39.669 84.649,40.354 84.719,41.052 C84.741,41.261 84.765,41.47 84.776,41.681 C84.8,41.913 84.811,42.145 84.824,42.378 C84.836,42.681 84.846,42.983 84.846,43.285 C84.849,54.401 75.813,63.437 64.694,63.437 Z" id="Shape"></path>
            <polygon id="Shape" points="9.913 10.673 15.679 10.673 15.679 20.001 12.238 23.442 12.238 16.488 11.003 16.488 11.003 15.301 9.913 15.301"></polygon>
            <polygon id="Shape" points="16.867 10.673 22.633 10.673 22.633 20.001 19.192 23.442 19.192 16.488 17.957 16.488 17.957 15.301 16.867 15.301"></polygon>
            <polygon id="Shape" points="61.955 31.318 62.316 35.77 68.583 35.263 57.403 48.409 56.896 42.14 52.446 42.501 53.566 56.367 67.432 55.246 67.071 50.794 60.806 51.302 71.983 38.155 72.49 44.425 76.942 44.063 75.821 30.197"></polygon>
        </g>
    </g>
</svg>